<?xml version="1.0" standalone="no"?>
<!DOCTYPE svg PUBLIC "-//W3C//DTD SVG 20010904//EN"
 "http://www.w3.org/TR/2001/REC-SVG-20010904/DTD/svg10.dtd">
<svg version="1.0" xmlns="http://www.w3.org/2000/svg"
 width="1076.000000pt" height="1076.000000pt" viewBox="0 0 1076.000000 1076.000000"
 preserveAspectRatio="xMidYMid meet">
<metadata>
Created by potrace 1.11, written by Peter Selinger 2001-2013
</metadata>
<g transform="translate(0.000000,1076.000000) scale(0.100000,-0.100000)"
fill="#000000" stroke="none">
<path d="M1616 9820 c-3 -25 -17 -148 -32 -275 -94 -845 -215 -1496 -312
-1681 l-21 -39 -1 65 c-3 331 -30 659 -66 820 -36 161 -138 406 -204 490 -17
22 -16 12 10 -84 116 -431 121 -991 14 -1514 -43 -210 -78 -306 -234 -647
l-150 -329 60 -162 c33 -88 60 -177 60 -196 0 -152 -148 -447 -327 -651 -122
-140 -125 -146 -120 -200 3 -35 12 -56 32 -77 27 -28 33 -30 106 -30 43 0 149
-9 236 -21 238 -31 380 -18 456 44 l28 22 -84 1 c-56 1 -110 9 -158 24 -89 27
-155 59 -143 69 5 4 82 36 172 71 90 35 165 67 167 71 5 7 -77 24 -242 50 -40
7 -73 15 -73 19 0 3 94 59 208 123 114 64 216 123 226 130 17 12 8 18 -90 54
-134 49 -143 61 -120 154 9 33 29 79 45 103 68 98 304 295 421 350 94 45 189
48 266 11 64 -32 107 -84 129 -158 25 -85 20 -148 -21 -240 -62 -143 -144
-227 -296 -307 l-71 -38 59 -12 c122 -24 179 -41 192 -57 33 -45 1 -91 -154
-224 -46 -40 -84 -76 -84 -81 0 -13 218 -9 322 7 184 27 349 97 509 214 l60
45 -48 12 c-26 7 -84 18 -128 24 -95 13 -187 38 -197 53 -3 6 -12 47 -18 92
-15 105 -4 148 59 235 26 36 78 110 116 164 96 139 169 221 287 322 141 120
217 194 235 228 14 27 14 28 -2 22 -69 -26 -357 -106 -365 -101 -5 3 16 40 49
83 68 90 132 195 190 310 51 101 66 111 296 205 260 105 466 156 689 173 l100
7 -55 -64 c-90 -107 -196 -252 -285 -391 -46 -73 -85 -136 -86 -140 -2 -4 -28
-4 -58 1 -112 18 -225 -22 -303 -109 -66 -73 -90 -144 -85 -245 5 -100 32
-161 103 -230 l51 -50 -34 -105 c-259 -815 -238 -1684 59 -2478 122 -326 291
-641 482 -898 42 -57 77 -106 77 -109 0 -9 -297 -5 -401 5 -502 51 -1098 430
-1414 900 l-44 65 15 65 c21 92 21 294 0 402 -35 182 -124 395 -241 582 -111
177 -124 220 -132 439 -3 87 -9 156 -14 155 -27 -10 -126 -146 -169 -233 -56
-115 -72 -172 -100 -356 -28 -180 -49 -222 -116 -234 -56 -10 -111 42 -136
129 l-11 41 -13 -44 c-52 -172 -1 -452 127 -702 54 -105 96 -154 217 -253 39
-32 114 -107 166 -165 208 -232 347 -426 463 -646 56 -107 83 -145 152 -218
47 -49 121 -118 165 -154 93 -75 292 -208 416 -278 47 -26 87 -49 89 -51 8 -7
-25 -37 -71 -64 l-49 -27 73 -36 c145 -70 277 -102 490 -117 339 -24 426 -33
648 -68 232 -35 240 -36 570 -37 l335 -2 90 -53 c365 -215 869 -386 1340 -454
392 -57 903 -44 1276 33 1008 208 1854 778 2414 1626 354 536 559 1134 616
1794 15 178 6 588 -16 751 -97 722 -366 1353 -814 1915 -124 156 -402 434
-563 563 -497 397 -1075 661 -1698 776 -248 46 -406 59 -680 59 -346 1 -604
-30 -895 -105 -111 -28 -132 -31 -270 -29 -114 1 -171 -3 -240 -17 -114 -24
-278 -89 -374 -147 l-73 -45 6 28 c13 53 76 168 124 225 52 61 159 158 205
185 15 9 27 20 27 24 0 13 -73 23 -165 22 -200 -1 -401 -103 -616 -311 l-96
-93 -73 17 -72 17 4 61 c10 114 88 231 216 322 l66 47 -40 9 c-21 5 -82 7
-134 4 -177 -8 -325 -88 -482 -259 -151 -165 -178 -189 -244 -220 -35 -16 -90
-33 -121 -38 -58 -7 -133 -3 -133 9 0 3 53 98 119 211 65 113 114 206 110 208
-17 7 -114 -31 -213 -81 -171 -87 -398 -260 -665 -507 l-144 -133 7 119 c4 65
9 142 12 169 l6 50 -38 -45 c-87 -103 -233 -226 -414 -349 -183 -124 -282
-183 -291 -174 -4 4 -13 73 -20 151 -14 174 -3 381 42 777 49 437 50 756 0
886 -8 22 -9 20 -15 -21z m5109 -1230 c623 -42 1233 -251 1748 -597 352 -238
707 -592 938 -935 339 -503 530 -1031 595 -1641 20 -186 14 -598 -10 -777
-201 -1457 -1213 -2606 -2621 -2975 -312 -82 -539 -110 -885 -109 -358 1 -597
33 -922 125 -232 65 -656 239 -618 252 8 3 71 21 138 41 163 48 326 113 494
197 l138 68 127 -29 c350 -79 735 -95 1082 -44 590 87 1163 363 1587 767 l101
96 66 -11 c167 -27 350 56 441 200 50 79 69 157 63 260 -4 81 -9 102 -41 166
l-36 74 54 113 c134 281 224 598 261 924 17 148 20 473 5 615 -106 1019 -719
1899 -1635 2350 -405 200 -787 294 -1250 309 l-200 6 67 33 c37 18 102 40 143
49 l76 17 -37 37 c-48 49 -153 104 -235 124 -137 32 -352 12 -497 -46 -82 -32
-131 -36 -212 -14 -67 17 -185 76 -231 114 -32 27 -33 29 -17 53 18 28 67 45
253 92 351 88 711 120 1070 96z m150 -851 c969 -94 1800 -776 2157 -1773 111
-311 154 -595 145 -959 -8 -329 -54 -570 -163 -866 -63 -168 -115 -273 -133
-266 -46 18 -135 25 -198 15 -144 -23 -272 -121 -335 -255 -58 -125 -49 -290
22 -407 l29 -47 -81 -76 c-517 -486 -1251 -749 -1970 -704 -90 5 -171 12 -181
15 -15 5 -12 12 21 52 22 26 64 85 95 132 31 47 97 125 146 175 104 103 95
104 154 -17 17 -37 37 -66 42 -64 19 5 65 81 85 139 11 31 30 112 41 180 20
120 52 209 97 265 l18 24 56 -60 c31 -34 74 -97 99 -146 24 -47 47 -86 50 -86
12 0 67 136 80 195 15 73 78 172 115 181 14 4 83 -1 155 -11 195 -26 277 -8
357 79 49 53 75 122 97 256 21 133 32 168 56 181 11 5 72 28 137 50 140 48
189 75 236 130 78 91 83 186 21 393 -19 66 -35 126 -35 134 0 8 49 64 108 126
60 61 122 134 138 161 26 45 29 59 29 135 0 75 -3 91 -28 136 -16 28 -69 96
-118 150 -49 54 -92 109 -95 121 -4 15 11 72 39 152 56 157 65 227 43 303 -31
107 -104 165 -311 249 -108 44 -122 60 -130 145 -20 211 -32 263 -79 331 -23
34 -50 57 -91 78 -59 30 -59 30 -239 31 -100 0 -187 1 -193 2 -49 7 53 52 165
75 l64 12 -43 34 c-71 58 -179 107 -285 131 -75 17 -106 29 -129 50 -45 42
-92 62 -157 67 -52 5 -60 9 -78 38 -32 52 -35 88 -11 139 50 102 146 165 271
175 l75 6 -54 52 c-96 92 -203 135 -429 173 -67 11 -155 33 -195 48 l-72 27
45 5 c59 7 207 2 345 -11z m-2649 -244 c121 -31 233 -70 358 -124 l48 -21 -48
-42 c-869 -749 -1227 -1951 -908 -3050 131 -453 368 -864 703 -1219 72 -77 87
-98 73 -102 -9 -3 -69 -24 -132 -47 -108 -39 -336 -100 -425 -113 -41 -7 -41
-6 -101 66 -452 540 -712 1151 -796 1872 -19 164 -16 588 6 760 31 253 99 549
172 750 25 69 26 70 85 98 155 73 233 246 185 411 l-17 58 32 56 c100 177 254
389 418 575 l104 119 56 -7 c31 -4 115 -22 187 -40z m484 -191 c0 -2 -9 0 -20
6 -11 6 -20 13 -20 16 0 2 9 0 20 -6 11 -6 20 -13 20 -16z m243 -146 c88 -60
232 -182 330 -282 l89 -90 -51 -18 c-62 -23 -132 -98 -156 -166 -9 -26 -27
-108 -40 -181 -19 -110 -28 -138 -45 -151 -12 -9 -67 -31 -123 -49 -176 -58
-256 -110 -295 -194 -40 -88 -36 -166 18 -342 17 -54 30 -109 30 -123 0 -19
-28 -54 -109 -137 -157 -160 -193 -245 -157 -368 17 -58 58 -117 174 -247 44
-50 62 -78 62 -98 0 -15 -20 -85 -45 -157 -38 -110 -45 -142 -45 -205 1 -153
75 -232 300 -320 143 -56 140 -51 159 -248 16 -154 39 -212 112 -283 l59 -56
-53 -50 c-82 -77 -186 -157 -318 -243 l-122 -79 -27 19 c-45 32 -228 229 -303
325 -333 430 -517 895 -568 1435 -14 149 -6 438 16 588 84 575 337 1095 735
1506 114 118 290 267 304 259 6 -4 37 -24 69 -45z m579 -634 c40 -6 47 -11 80
-63 174 -267 299 -602 354 -946 25 -152 25 -495 0 -652 -58 -372 -188 -701
-397 -1008 -109 -159 -104 -155 -178 -158 -76 -2 -73 -9 -90 166 -23 239 -75
311 -284 396 -128 52 -165 71 -170 85 -3 7 17 78 44 157 84 247 70 315 -105
513 -53 60 -96 113 -96 118 0 5 51 62 113 126 142 147 162 185 162 302 0 69
-8 109 -39 214 l-39 130 22 17 c12 10 73 34 136 54 180 58 260 120 300 235 9
24 24 99 35 166 11 67 22 129 26 138 7 17 47 21 126 10z m1964 -66 l182 2 6
-24 c3 -14 11 -71 17 -128 27 -267 69 -325 310 -424 134 -55 149 -63 149 -87
0 -10 -17 -64 -38 -120 -52 -137 -66 -198 -59 -266 8 -91 44 -151 185 -304 34
-38 62 -76 62 -84 0 -9 -50 -67 -110 -129 -138 -141 -166 -193 -164 -304 1
-50 11 -105 29 -165 47 -152 50 -174 34 -190 -8 -7 -67 -32 -131 -54 -64 -22
-131 -47 -150 -57 -114 -58 -158 -135 -193 -339 -14 -79 -30 -145 -39 -153
-11 -11 -27 -13 -68 -8 l-53 7 0 142 0 142 -49 140 c-49 138 -50 142 -54 280
-2 77 0 157 5 177 l8 37 44 -20 c72 -32 168 -106 223 -172 28 -34 54 -62 56
-62 3 0 12 23 19 50 18 72 16 180 -6 268 -33 127 -73 205 -214 410 -41 60 -86
297 -56 297 24 0 200 -84 311 -148 60 -34 111 -62 114 -62 9 0 -6 119 -23 180
-28 102 -68 158 -266 375 -99 109 -256 330 -243 343 4 4 47 7 94 7 94 -1 195
-26 284 -71 l48 -24 -20 50 c-70 179 -224 319 -459 420 -83 37 -86 39 -92 76
-4 22 -5 42 -3 45 2 3 31 -8 66 -25 l62 -31 182 3z m-244 -2622 c41 -32 158
-164 166 -185 1 -4 -46 -8 -105 -8 -60 0 -120 -4 -134 -10 -26 -11 -26 -11
-32 37 -11 88 20 232 46 213 6 -5 33 -26 59 -47z m-75 -493 c-3 -10 -5 -4 -5
12 0 17 2 24 5 18 2 -7 2 -21 0 -30z m-1069 -880 c-2 -23 -8 -29 -35 -31 -40
-4 -42 5 -5 35 36 29 44 29 40 -4z"/>
</g>
</svg>
